# File created by Blade
# Date/Time:  Tue Apr 07 21:36:59 2015
# Frame Rate: 120.000 fps
#------------------------------------------------------
:FULLY-SPECIFIED
:DEGREES
623
root -5.242164 29.699891 11.406902 202.414817 -103.223689 -180.558018
Spine 7.412710 -7.193064 1.958251
Head -5.412243 -10.425089 0.004852
LeftShoulder -22.417339 45.216389 4.062321
LeftArm 54.012688 -16.059886 -83.625012
LeftForeArm 1.297816 -0.000000 10.896092
LeftHand 18.121512 -0.000000 18.425285
LeftHandThumb1 -26.253704 0.000000 33.147579
RightShoulder -7.679207 -2.607743 -20.361114
RightArm 7.072951 21.804218 71.742687
RightForeArm -1.419523 -0.000000 27.281429
RightHand 17.284840 -0.000000 -21.702972
RightHandThumb1 -24.326973 -0.000000 -32.862282
LeftUpLeg -53.540578 -6.490483 -0.043495
LeftLeg 53.369906 -0.000000 -0.000000
LeftFoot -23.905730 8.734810 -15.688848
LeftToeBase -9.177106 -0.000000 0.000000
RightUpLeg -55.401568 1.063892 0.638495
RightLeg 56.444591 -0.000000 -0.000000
RightFoot -20.993120 -20.674340 10.929354
RightToeBase -7.217941 -0.000000 0.000000
624
root -5.230237 30.078837 11.477265 202.475360 -102.966005 -180.590106
Spine 7.637999 -7.101334 2.079124
Head -5.894568 -10.048161 -0.030448
LeftShoulder -22.202022 45.344456 4.266679
LeftArm 53.760549 -15.617431 -83.803677
LeftForeArm 1.331532 0.000000 10.163356
LeftHand 17.893618 -0.000000 18.432086
LeftHandThumb1 -26.253704 0.000000 33.147579
RightShoulder -7.749497 -3.008186 -20.473500
RightArm 6.940261 21.419840 72.167775
RightForeArm -1.373229 -0.000000 26.260043
RightHand 16.986861 0.000000 -21.202810
RightHandThumb1 -24.326973 -0.000000 -32.862282
LeftUpLeg -51.802886 -7.017574 0.229969
LeftLeg 49.995493 -0.000000 -0.000000
LeftFoot -22.725901 9.296163 -15.955051
LeftToeBase -9.671563 -0.000000 0.000000
RightUpLeg -53.924841 1.197180 0.326524
RightLeg 53.618487 -0.000000 -0.000000
RightFoot -19.762930 -20.087102 10.965490
RightToeBase -6.772637 -0.000000 0.000000
625
root -5.240444 30.461473 11.538356 203.038159 -102.562229 -181.232905
Spine 7.862096 -6.910867 2.196451
Head -6.086591 -9.691255 -0.019850
LeftShoulder -22.160811 45.517812 4.508604
LeftArm 53.651836 -15.023960 -83.586734
LeftForeArm 0.354225 -0.000000 9.119774
LeftHand 17.887823 -0.000000 18.610007
LeftHandThumb1 -26.253704 0.000000 33.147579
RightShoulder -7.685135 -3.335422 -20.644250
RightArm 6.867783 20.807545 72.467797
RightForeArm -1.125040 -0.000000 24.921124
RightHand 16.395129 -0.000000 -21.031928
RightHandThumb1 -24.326973 -0.000000 -32.862282
LeftUpLeg -50.018069 -7.203143 0.505700
LeftLeg 46.688338 -0.000000 -0.000000
LeftFoot -21.116998 9.799806 -15.844123
LeftToeBase -9.792183 -0.000000 0.000000
RightUpLeg -52.299905 1.511443 0.169638
RightLeg 50.712105 -0.000000 -0.000000
RightFoot -18.492508 -19.770854 11.055983
RightToeBase -6.655697 -0.000000 0.000000
626
root -5.262378 30.840177 11.596380 203.588189 -101.996429 -181.870793
Spine 7.957878 -6.683260 2.197633
Head -5.981565 -9.353751 0.023342
LeftShoulder -22.193836 45.567203 4.841430
LeftArm 53.445855 -14.547180 -83.225301
LeftForeArm -0.882762 -0.000000 8.028319
LeftHand 17.972839 -0.000000 17.906316
LeftHandThumb1 -26.253704 0.000000 33.147579
RightShoulder -7.506751 -3.634860 -20.915746
RightArm 6.971862 20.289944 72.815934
RightForeArm -0.585373 -0.000000 23.211156
RightHand 17.651558 -0.000000 -21.389213
RightHandThumb1 -24.326973 -0.000000 -32.862282
LeftUpLeg -48.303137 -7.228700 0.710297
LeftLeg 43.507494 -0.000000 -0.000000
LeftFoot -19.202175 10.313335 -15.607425
LeftToeBase -10.789626 -0.000000 0.000000
RightUpLeg -50.667309 1.853947 0.041759
RightLeg 47.880723 -0.000000 -0.000000
RightFoot -17.277905 -19.527655 11.160917
RightToeBase -6.474611 -0.000000 0.000000
627
root -5.297055 31.203608 11.650853 204.120523 -101.333840 -182.436829
Spine 7.828227 -6.414589 2.110763
Head -5.505434 -9.053258 0.032174
LeftShoulder -22.263841 45.558743 5.232256
LeftArm 53.216206 -14.334634 -82.907060
LeftForeArm -2.024514 -0.000000 6.906934
LeftHand 18.138703 0.000000 16.886860
LeftHandThumb1 -26.253704 0.000000 33.147579
RightShoulder -7.304029 -3.936457 -21.198043
RightArm 7.149929 19.765880 73.069365
RightForeArm -0.154545 -0.000000 21.492894
RightHand 18.259081 0.000000 -21.613699
RightHandThumb1 -24.326973 -0.000000 -32.862282
LeftUpLeg -46.672989 -7.146085 0.845542
LeftLeg 40.409476 -0.000000 -0.000000
LeftFoot -17.212339 10.785523 -15.404950
LeftToeBase -11.054576 -0.000000 0.000000
RightUpLeg -49.166714 2.106059 -0.023013
RightLeg 45.335074 -0.000000 -0.000000
RightFoot -16.137648 -19.128647 11.383549
RightToeBase -6.543825 -0.000000 0.000000
628
root -5.335322 31.549833 11.692789 204.931685 -100.749721 -183.149229
Spine 7.416792 -6.149454 2.069470
Head -4.794213 -8.745784 -0.002122
LeftShoulder -22.203198 45.460169 5.759170
LeftArm 52.862428 -14.522991 -82.768329
LeftForeArm -3.149715 -0.000000 6.040872
LeftHand 17.784053 -0.000000 16.219211
LeftHandThumb1 -26.253704 0.000000 33.147579
RightShoulder -7.178143 -4.059138 -21.469804
RightArm 7.124787 18.966500 73.053381
RightForeArm 0.423197 -0.000000 19.897567
RightHand 18.574012 0.000000 -21.618804
RightHandThumb1 -24.326973 -0.000000 -32.862282
LeftUpLeg -45.259576 -6.933896 0.940486
LeftLeg 37.523287 -0.000000 -0.000000
LeftFoot -15.136351 11.124934 -15.159238
LeftToeBase -11.254415 -0.000000 0.000000
RightUpLeg -47.890327 2.373684 -0.033454
RightLeg 43.143227 -0.000000 -0.000000
RightFoot -15.224566 -18.698241 11.639214
RightToeBase -6.338736 -0.000000 0.000000
629
root -5.376034 31.873733 11.725307 206.021259 -100.268596 -184.010868
Spine 6.743133 -5.844058 2.100424
Head -3.886273 -8.477114 -0.115307
LeftShoulder -22.013334 45.366486 6.365882
LeftArm 52.519404 -15.091901 -82.753637
LeftForeArm -4.069235 -0.000000 5.345705
LeftHand 17.009120 -0.000000 14.439639
LeftHandThumb1 -26.253704 0.000000 33.147579
RightShoulder -7.170237 -4.145088 -21.749950
RightArm 7.053165 18.157449 72.917291
RightForeArm 0.914335 -0.000000 18.357090
RightHand 19.010007 -0.000000 -21.924486
RightHandThumb1 -24.326973 -0.000000 -32.862282
LeftUpLeg -44.028756 -6.594891 1.026348
LeftLeg 34.808635 -0.000000 -0.000000
LeftFoot -13.221540 11.297965 -15.297503
LeftToeBase -11.942291 -0.000000 0.000000
RightUpLeg -46.805583 2.589679 0.039424
RightLeg 41.300000 -0.000000 -0.000000
RightFoot -14.366331 -18.159297 11.639738
RightToeBase -6.345135 -0.000000 0.000000
630
root -5.418910 32.169522 11.753444 207.495308 -99.859695 -185.164013
Spine 5.872544 -5.527167 2.199838
Head -2.864505 -8.241135 -0.277846
LeftShoulder -21.849143 45.277462 6.943328
LeftArm 52.234157 -16.005466 -82.869565
LeftForeArm -4.655033 -0.000000 4.919899
LeftHand 16.634529 -0.000000 13.577655
LeftHandThumb1 -26.253704 0.000000 33.147579
RightShoulder -7.213379 -4.141783 -22.038319
RightArm 6.853123 17.397789 72.614080
RightForeArm 1.203480 -0.000000 16.992665
RightHand 18.654076 -0.000000 -21.706598
RightHandThumb1 -24.326973 -0.000000 -32.862282
LeftUpLeg -42.994678 -6.085044 1.110965
LeftLeg 32.312752 -0.000000 -0.000000
LeftFoot -11.180277 11.187120 -15.249855
LeftToeBase -13.038213 -0.000000 0.000000
RightUpLeg -45.909943 2.807608 0.188872
RightLeg 39.986945 -0.000000 -0.000000
RightFoot -13.799543 -17.534818 11.853977
RightToeBase -6.802567 -0.000000 0.000000
631
root -5.463510 32.435971 11.782921 209.161808 -99.417714 -186.441543
Spine 4.843806 -5.218058 2.280148
Head -1.777247 -7.999195 -0.477535
LeftShoulder -21.887347 45.291109 7.352153
LeftArm 52.060760 -17.075481 -82.874530
LeftForeArm -5.323979 -0.000000 4.730915
LeftHand 16.365767 -0.000000 13.504479
LeftHandThumb1 -26.253704 0.000000 33.147579
RightShoulder -7.270761 -4.197041 -22.333506
RightArm 6.765903 16.841374 72.241162
RightForeArm 1.502145 0.000000 15.736852
RightHand 18.626666 -0.000000 -21.122992
RightHandThumb1 -24.326973 -0.000000 -32.862282
LeftUpLeg -42.196606 -5.295326 1.072585
LeftLeg 30.177242 -0.000000 -0.000000
LeftFoot -9.198392 10.759027 -15.150471
LeftToeBase -13.748969 -0.000000 0.000000
RightUpLeg -45.256741 2.930471 0.397351
RightLeg 39.420468 -0.000000 -0.000000
RightFoot -13.631865 -16.546831 12.212959
RightToeBase -6.788179 -0.000000 0.000000
632
root -5.501319 32.676735 11.819516 210.208989 -98.897981 -187.019478
Spine 3.704832 -5.012125 2.202877
Head -0.765746 -7.726593 -0.667454
LeftShoulder -22.178428 45.358141 7.536391
LeftArm 51.950548 -18.358735 -82.806991
LeftForeArm -5.582660 -0.000000 4.796371
LeftHand 16.181886 0.000000 13.664815
LeftHandThumb1 -26.253704 0.000000 33.147579
RightShoulder -7.304483 -4.249314 -22.651502
RightArm 6.828088 16.673501 71.886169
RightForeArm 1.457691 -0.000000 14.567892
RightHand 18.597358 -0.000000 -20.502893
RightHandThumb1 -24.326973 -0.000000 -32.862282
LeftUpLeg -41.520610 -4.962372 1.160068
LeftLeg 28.105292 -0.000000 -0.000000
LeftFoot -7.551765 10.539761 -15.700886
LeftToeBase -13.916065 -0.000000 0.000000
RightUpLeg -44.861977 2.824643 0.595527
RightLeg 39.495229 -0.000000 -0.000000
RightFoot -13.223979 -15.656917 11.949284
RightToeBase -7.963085 -0.000000 0.000000
633
root -5.538464 32.891866 11.852469 211.259817 -98.361387 -187.609778
Spine 2.538876 -4.866913 2.121450
Head 0.278031 -7.539065 -0.960976
LeftShoulder -22.570954 45.379341 7.635220
LeftArm 51.767123 -19.741226 -82.598001
LeftForeArm -5.545376 -0.000000 5.118969
LeftHand 15.991641 -0.000000 14.474105
LeftHandThumb1 -26.253704 0.000000 33.147579
RightShoulder -7.290402 -4.198880 -23.021413
RightArm 6.831507 16.798341 71.484698
RightForeArm 1.227138 -0.000000 13.588604
RightHand 18.601389 0.000000 -20.012593
RightHandThumb1 -24.326973 -0.000000 -32.862282
LeftUpLeg -40.969888 -4.972205 1.411123
LeftLeg 26.266910 -0.000000 -0.000000
LeftFoot -6.048491 10.627860 -16.108798
LeftToeBase -14.337438 -0.000000 0.000000
RightUpLeg -44.603727 2.609320 0.843147
RightLeg 40.073692 -0.000000 -0.000000
RightFoot -13.006204 -14.836156 11.988881
RightToeBase -7.152298 -0.000000 0.000000
634
root -5.577344 33.074410 11.877254 212.670492 -97.925151 -188.639830
Spine 1.435371 -4.827669 2.142380
Head 1.264115 -7.331760 -1.283872
LeftShoulder -22.936153 45.267984 7.772224
LeftArm 51.457707 -21.352585 -82.453669
LeftForeArm -5.332359 -0.000000 5.633475
LeftHand 16.156242 -0.000000 15.075288
LeftHandThumb1 -26.253704 0.000000 33.147579
RightShoulder -7.232409 -4.126520 -23.409227
RightArm 6.811115 17.016593 70.975389
RightForeArm 0.842949 -0.000000 12.866981
RightHand 18.449844 0.000000 -19.430993
RightHandThumb1 -24.326973 -0.000000 -32.862282
LeftUpLeg -40.501528 -5.218413 1.857158
LeftLeg 24.758399 -0.000000 -0.000000
LeftFoot -4.764007 10.755195 -16.431794
LeftToeBase -14.790772 -0.000000 0.000000
RightUpLeg -44.335370 2.360112 1.186924
RightLeg 40.873954 -0.000000 -0.000000
RightFoot -12.931769 -14.369644 12.286632
RightToeBase -6.241971 -0.000000 0.000000
